<svg width="512" height="513" viewBox="0 0 512 513" fill="none" xmlns="http://www.w3.org/2000/svg">
<path d="M32 64C32 28.7 60.7 0 96 0H256C291.3 0 320 28.7 320 64V256H328C376.6 256 416 295.4 416 344V376C416 389.3 426.7 400 440 400C453.3 400 464 389.3 464 376V222C436.4 214.9 416 189.8 416 160V96L384 64C375.2 55.2 375.2 40.8 384 32C392.8 23.2 407.2 23.2 416 32L493.3 109.3C505.3 121.3 512 137.6 512 154.6V168.1V192.1V224.1V376.1C512 415.9 479.8 448.1 440 448.1C400.2 448.1 368 415.9 368 376.1V344.1C368 322 350.1 304.1 328 304.1H320V448.1C337.7 448.1 352 462.4 352 480.1C352 497.8 337.7 512.1 320 512.1L32 512C14.3 512 0 497.7 0 480C0 462.3 14.3 448 32 448V64ZM96 80V176C96 184.8 103.2 192 112 192H240C248.8 192 256 184.8 256 176V80C256 71.2 248.8 64 240 64H112C103.2 64 96 71.2 96 80Z" fill="white"/>
</svg>
