<svg width="576" height="512" viewBox="0 0 576 512" fill="none" xmlns="http://www.w3.org/2000/svg">
<path d="M544 0C561.7 0 576 14.3 576 32V480C576 497.7 561.7 512 544 512C526.3 512 512 497.7 512 480V32C512 14.3 526.3 0 544 0ZM416 96C433.7 96 448 110.3 448 128V480C448 497.7 433.7 512 416 512C398.3 512 384 497.7 384 480V128C384 110.3 398.3 96 416 96ZM320 224V480C320 497.7 305.7 512 288 512C270.3 512 256 497.7 256 480V224C256 206.3 270.3 192 288 192C305.7 192 320 206.3 320 224ZM160 288C177.7 288 192 302.3 192 320V480C192 497.7 177.7 512 160 512C142.3 512 128 497.7 128 480V320C128 302.3 142.3 288 160 288ZM64 416V480C64 497.7 49.7 512 32 512C14.3 512 0 497.7 0 480V416C0 398.3 14.3 384 32 384C49.7 384 64 398.3 64 416Z" fill="white"/>
</svg>
