<svg width="512" height="513" viewBox="0 0 512 513" fill="none" xmlns="http://www.w3.org/2000/svg">
<path d="M499.1 6.354C507.2 12.354 512 21.954 512 32.054V104.054V368.054C512 412.254 469 448.054 416 448.054C363 448.054 320 412.254 320 368.054C320 323.854 363 288.054 416 288.054C427.2 288.054 438 289.654 448 292.654V147.054L192 223.854V432.054C192 476.254 149 512.054 96 512.054C43 512.054 0 476.254 0 432.054C0 387.854 43 352.054 96 352.054C107.2 352.054 118 353.654 128 356.654V200.054V128.054C128 113.954 137.3 101.454 150.8 97.354L470.8 1.354C480.5 -1.546 491 0.254004 499.1 6.354Z" fill="white"/>
</svg>
