<svg width="1920" height="984" viewBox="0 0 1920 984" fill="none" xmlns="http://www.w3.org/2000/svg">
<g clip-path="url(#clip0_2114_466)">
<rect width="1920" height="984" fill="black"/>
<g filter="url(#filter0_i_2114_466)">
<path d="M1919.5 892.5V787C1919.5 869 1767.17 929.5 1691 949.5C1719.8 946.3 1751.33 963.833 1763.5 973C1823.9 973 1892.67 919.333 1919.5 892.5Z" fill="url(#paint0_linear_2114_466)"/>
</g>
<g filter="url(#filter1_i_2114_466)">
<path d="M0 903.5V798C0 880 152.333 940.5 228.5 960.5C199.7 957.3 168.167 974.833 156 984C95.6 984 26.8333 930.333 0 903.5Z" fill="url(#paint1_linear_2114_466)"/>
</g>
<g filter="url(#filter2_i_2114_466)">
<path d="M-88 171C-88 167.606 -86.025 160.934 -74.4759 151.224C-63.119 141.674 -45.0204 131.423 -19.4118 121.032C31.6242 100.323 107.953 80.84 207.246 64.1512C405.544 30.8223 675.257 12 957 12C1238.74 12 1508.46 30.8223 1706.75 64.1512C1806.05 80.84 1882.38 100.323 1933.41 121.032C1959.02 131.423 1977.12 141.674 1988.48 151.224C2000.03 160.934 2002 167.606 2002 171" stroke="url(#paint2_linear_2114_466)" stroke-width="40"/>
</g>
<line x1="836.695" y1="587.325" x2="667.381" y2="784.923" stroke="url(#paint3_linear_2114_466)"/>
<line y1="-0.5" x2="260.215" y2="-0.5" transform="matrix(0.650668 0.759363 0.759363 -0.650668 1081.84 587)" stroke="url(#paint4_linear_2114_466)"/>
<path d="M692.843 295H1175.84" stroke="#868686"/>
<path d="M1725.13 757.132C1767.09 715.176 1795.66 661.721 1807.24 603.527C1818.81 545.333 1812.87 485.013 1790.16 430.195C1767.46 375.377 1729.01 328.524 1679.67 295.559C1630.34 262.595 1572.33 245 1513 245C1453.67 245 1395.66 262.595 1346.33 295.559C1296.99 328.524 1258.54 375.377 1235.84 430.195C1213.13 485.013 1207.19 545.333 1218.76 603.527C1230.34 661.721 1258.91 715.176 1300.87 757.132" stroke="#3F4140" stroke-width="2"/>
<g filter="url(#filter3_i_2114_466)">
<path d="M1714.53 748C1754.38 708.021 1781.53 657.085 1792.52 601.633C1803.52 546.181 1797.88 488.703 1776.31 436.468C1754.73 384.234 1718.21 339.588 1671.34 308.177C1624.47 276.766 1569.37 260 1513 260C1456.63 260 1401.53 276.766 1354.66 308.177C1307.79 339.588 1271.27 384.234 1249.69 436.468C1228.12 488.703 1222.48 546.181 1233.48 601.633C1244.47 657.085 1271.62 708.021 1311.47 748" stroke="#1B1A1D" stroke-width="20"/>
</g>
<path d="M1706.39 740C1744.73 701.66 1770.84 652.811 1781.42 599.632C1792 546.452 1786.57 491.33 1765.82 441.236C1745.07 391.142 1709.93 348.326 1664.85 318.202C1619.76 288.079 1566.76 272 1512.54 272C1458.32 272 1405.31 288.078 1360.23 318.202C1315.15 348.326 1280.01 391.142 1259.26 441.236C1238.51 491.33 1233.08 546.452 1243.66 599.632C1254.24 652.811 1280.35 701.66 1318.69 740" stroke="#862323" stroke-width="2"/>
<path d="M1629.93 661C1653.03 638.225 1668.75 609.208 1675.13 577.619C1681.5 546.029 1678.23 513.286 1665.73 483.529C1653.23 453.772 1632.06 428.339 1604.9 410.445C1577.74 392.551 1545.81 383 1513.15 383C1480.49 383 1448.56 392.551 1421.4 410.445C1394.24 428.339 1373.07 453.772 1360.57 483.529C1348.07 513.286 1344.8 546.029 1351.17 577.619C1357.55 609.208 1373.27 638.225 1396.37 661" stroke="#3F4140"/>
<g filter="url(#filter4_i_2114_466)">
<path d="M1620.74 652.419C1642.02 631.315 1656.51 604.426 1662.38 575.153C1668.26 545.88 1665.24 515.538 1653.73 487.963C1642.21 460.389 1622.71 436.821 1597.69 420.239C1572.66 403.657 1543.25 394.807 1513.15 394.807C1483.06 394.807 1453.64 403.657 1428.62 420.239C1403.6 436.821 1384.1 460.389 1372.58 487.963C1361.07 515.538 1358.05 545.88 1363.92 575.153C1369.79 604.426 1384.29 631.315 1405.56 652.419" stroke="#1B1A1D" stroke-width="20"/>
</g>
<path d="M1349.68 713C1349.07 713 1348.52 712.84 1348.02 712.52C1347.53 712.184 1347.13 711.752 1346.82 711.224C1346.52 710.696 1346.37 710.136 1346.37 709.544V699.104C1346.37 698.48 1346.52 697.92 1346.82 697.424C1347.13 696.912 1347.53 696.504 1348.02 696.2C1348.52 695.88 1349.07 695.72 1349.68 695.72H1360.17C1360.78 695.72 1361.33 695.88 1361.82 696.2C1362.32 696.504 1362.72 696.912 1363.02 697.424C1363.33 697.92 1363.48 698.48 1363.48 699.104V709.544C1363.48 710.136 1363.33 710.696 1363.02 711.224C1362.72 711.752 1362.32 712.184 1361.82 712.52C1361.33 712.84 1360.78 713 1360.17 713H1349.68ZM1350.95 709.688H1360.05C1360.13 709.688 1360.19 709.664 1360.24 709.616C1360.3 709.552 1360.34 709.48 1360.34 709.4V701.864L1350.95 709.688ZM1349.51 706.76L1358.9 698.936H1349.8C1349.72 698.936 1349.65 698.968 1349.58 699.032C1349.54 699.08 1349.51 699.144 1349.51 699.224V706.76Z" fill="white"/>
<path d="M1279.68 534C1279.07 534 1278.52 533.848 1278.02 533.544C1277.53 533.24 1277.13 532.84 1276.82 532.344C1276.52 531.848 1276.37 531.296 1276.37 530.688V520.032C1276.37 519.408 1276.52 518.848 1276.82 518.352C1277.13 517.856 1277.53 517.464 1278.02 517.176C1278.52 516.872 1279.07 516.72 1279.68 516.72H1290.74V519.864H1279.8C1279.72 519.864 1279.65 519.896 1279.58 519.96C1279.54 520.008 1279.51 520.072 1279.51 520.152V523.296C1279.51 523.376 1279.54 523.448 1279.58 523.512C1279.65 523.56 1279.72 523.584 1279.8 523.584H1290.17C1290.78 523.584 1291.33 523.736 1291.82 524.04C1292.34 524.328 1292.74 524.728 1293.02 525.24C1293.33 525.736 1293.48 526.288 1293.48 526.896V530.688C1293.48 531.296 1293.33 531.848 1293.02 532.344C1292.72 532.84 1292.32 533.24 1291.82 533.544C1291.33 533.848 1290.78 534 1290.17 534H1279.68ZM1279.8 530.856H1290.05C1290.13 530.856 1290.19 530.832 1290.24 530.784C1290.3 530.72 1290.34 530.648 1290.34 530.568V527.04C1290.34 526.96 1290.3 526.896 1290.24 526.848C1290.19 526.784 1290.13 526.752 1290.05 526.752H1279.51V530.568C1279.51 530.648 1279.54 530.72 1279.58 530.784C1279.65 530.832 1279.72 530.856 1279.8 530.856ZM1299.37 534C1298.76 534 1298.21 533.84 1297.71 533.52C1297.22 533.184 1296.82 532.752 1296.51 532.224C1296.21 531.696 1296.06 531.136 1296.06 530.544V520.104C1296.06 519.48 1296.21 518.92 1296.51 518.424C1296.82 517.912 1297.22 517.504 1297.71 517.2C1298.21 516.88 1298.76 516.72 1299.37 516.72H1309.86C1310.46 516.72 1311.02 516.88 1311.51 517.2C1312.01 517.504 1312.41 517.912 1312.71 518.424C1313.02 518.92 1313.17 519.48 1313.17 520.104V530.544C1313.17 531.136 1313.02 531.696 1312.71 532.224C1312.41 532.752 1312.01 533.184 1311.51 533.52C1311.02 533.84 1310.46 534 1309.86 534H1299.37ZM1300.64 530.688H1309.74C1309.82 530.688 1309.88 530.664 1309.93 530.616C1309.99 530.552 1310.02 530.48 1310.02 530.4V522.864L1300.64 530.688ZM1299.2 527.76L1308.58 519.936H1299.49C1299.41 519.936 1299.34 519.968 1299.27 520.032C1299.22 520.08 1299.2 520.144 1299.2 520.224V527.76Z" fill="white"/>
<path d="M1290.61 625C1289.98 625 1289.42 624.848 1288.93 624.544C1288.43 624.24 1288.03 623.84 1287.73 623.344C1287.42 622.848 1287.27 622.296 1287.27 621.688V620.656H1290.42V621.568C1290.42 621.648 1290.44 621.72 1290.49 621.784C1290.55 621.832 1290.62 621.856 1290.7 621.856H1300.95C1301.03 621.856 1301.1 621.832 1301.17 621.784C1301.23 621.72 1301.26 621.648 1301.26 621.568V618.112C1301.26 618.032 1301.23 617.968 1301.17 617.92C1301.1 617.856 1301.03 617.824 1300.95 617.824H1290.25V614.68H1300.28C1300.36 614.68 1300.42 614.656 1300.47 614.608C1300.54 614.544 1300.57 614.472 1300.57 614.392V611.152C1300.57 611.072 1300.54 611.008 1300.47 610.96C1300.42 610.896 1300.36 610.864 1300.28 610.864H1290.7C1290.62 610.864 1290.55 610.896 1290.49 610.96C1290.44 611.008 1290.42 611.072 1290.42 611.152V612.28H1287.27V611.032C1287.27 610.408 1287.42 609.848 1287.73 609.352C1288.03 608.856 1288.43 608.464 1288.93 608.176C1289.42 607.872 1289.98 607.72 1290.61 607.72H1300.4C1301.02 607.72 1301.58 607.872 1302.08 608.176C1302.58 608.464 1302.97 608.856 1303.26 609.352C1303.56 609.848 1303.71 610.408 1303.71 611.032V614.536C1303.71 614.728 1303.7 614.928 1303.66 615.136C1303.63 615.328 1303.58 615.512 1303.52 615.688C1303.81 615.992 1304.02 616.352 1304.17 616.768C1304.33 617.168 1304.41 617.576 1304.41 617.992V621.688C1304.41 622.296 1304.26 622.848 1303.95 623.344C1303.65 623.84 1303.25 624.24 1302.75 624.544C1302.26 624.848 1301.7 625 1301.1 625H1290.61ZM1310.51 625C1309.9 625 1309.35 624.84 1308.85 624.52C1308.36 624.184 1307.96 623.752 1307.65 623.224C1307.35 622.696 1307.2 622.136 1307.2 621.544V611.104C1307.2 610.48 1307.35 609.92 1307.65 609.424C1307.96 608.912 1308.36 608.504 1308.85 608.2C1309.35 607.88 1309.9 607.72 1310.51 607.72H1321C1321.6 607.72 1322.16 607.88 1322.65 608.2C1323.15 608.504 1323.55 608.912 1323.85 609.424C1324.16 609.92 1324.31 610.48 1324.31 611.104V621.544C1324.31 622.136 1324.16 622.696 1323.85 623.224C1323.55 623.752 1323.15 624.184 1322.65 624.52C1322.16 624.84 1321.6 625 1321 625H1310.51ZM1311.78 621.688H1320.88C1320.96 621.688 1321.02 621.664 1321.07 621.616C1321.13 621.552 1321.16 621.48 1321.16 621.4V613.864L1311.78 621.688ZM1310.34 618.76L1319.72 610.936H1310.63C1310.55 610.936 1310.48 610.968 1310.41 611.032C1310.36 611.08 1310.34 611.144 1310.34 611.224V618.76Z" fill="white"/>
<path d="M1307.61 433C1307.08 433 1306.58 432.864 1306.12 432.592C1305.66 432.304 1305.26 431.928 1304.92 431.464C1304.6 430.984 1304.38 430.448 1304.27 429.856H1317.98C1318.06 429.856 1318.12 429.832 1318.17 429.784C1318.23 429.72 1318.26 429.648 1318.26 429.568V426.376C1318.26 426.296 1318.23 426.232 1318.17 426.184C1318.12 426.12 1318.06 426.088 1317.98 426.088H1307.61C1306.98 426.088 1306.42 425.936 1305.93 425.632C1305.43 425.328 1305.03 424.928 1304.73 424.432C1304.42 423.92 1304.27 423.36 1304.27 422.752V419.032C1304.27 418.408 1304.42 417.848 1304.73 417.352C1305.03 416.856 1305.43 416.464 1305.93 416.176C1306.42 415.872 1306.98 415.72 1307.61 415.72H1318.1C1318.7 415.72 1319.26 415.872 1319.75 416.176C1320.25 416.464 1320.65 416.856 1320.95 417.352C1321.26 417.848 1321.41 418.408 1321.41 419.032V429.688C1321.41 430.296 1321.26 430.848 1320.95 431.344C1320.65 431.84 1320.25 432.24 1319.75 432.544C1319.26 432.848 1318.7 433 1318.1 433H1307.61ZM1307.73 422.92H1318.26V419.152C1318.26 419.072 1318.23 419.008 1318.17 418.96C1318.12 418.896 1318.06 418.864 1317.98 418.864H1307.73C1307.65 418.864 1307.58 418.896 1307.51 418.96C1307.46 419.008 1307.44 419.072 1307.44 419.152V422.632C1307.44 422.712 1307.46 422.784 1307.51 422.848C1307.58 422.896 1307.65 422.92 1307.73 422.92ZM1327.56 433C1326.95 433 1326.4 432.84 1325.9 432.52C1325.4 432.184 1325 431.752 1324.7 431.224C1324.4 430.696 1324.24 430.136 1324.24 429.544V419.104C1324.24 418.48 1324.4 417.92 1324.7 417.424C1325 416.912 1325.4 416.504 1325.9 416.2C1326.4 415.88 1326.95 415.72 1327.56 415.72H1338.04C1338.65 415.72 1339.2 415.88 1339.7 416.2C1340.2 416.504 1340.6 416.912 1340.9 417.424C1341.2 417.92 1341.36 418.48 1341.36 419.104V429.544C1341.36 430.136 1341.2 430.696 1340.9 431.224C1340.6 431.752 1340.2 432.184 1339.7 432.52C1339.2 432.84 1338.65 433 1338.04 433H1327.56ZM1328.83 429.688H1337.92C1338 429.688 1338.07 429.664 1338.12 429.616C1338.18 429.552 1338.21 429.48 1338.21 429.4V421.864L1328.83 429.688ZM1327.39 426.76L1336.77 418.936H1327.68C1327.6 418.936 1327.52 418.968 1327.46 419.032C1327.41 419.08 1327.39 419.144 1327.39 419.224V426.76Z" fill="white"/>
<path d="M1378.54 370V357.256L1377.18 358.936H1373.02L1378.23 352.72H1381.71V370H1378.54ZM1383.74 370V363.376C1383.74 362.752 1383.9 362.192 1384.2 361.696C1384.5 361.2 1384.9 360.808 1385.4 360.52C1385.9 360.216 1386.45 360.064 1387.06 360.064H1397.42C1397.5 360.064 1397.57 360.04 1397.62 359.992C1397.68 359.928 1397.71 359.856 1397.71 359.776V356.152C1397.71 356.072 1397.68 356.008 1397.62 355.96C1397.57 355.896 1397.5 355.864 1397.42 355.864H1387.18C1387.1 355.864 1387.02 355.896 1386.96 355.96C1386.91 356.008 1386.89 356.072 1386.89 356.152V357.328H1383.74V356.032C1383.74 355.408 1383.9 354.848 1384.2 354.352C1384.5 353.856 1384.9 353.464 1385.4 353.176C1385.9 352.872 1386.45 352.72 1387.06 352.72H1397.54C1398.15 352.72 1398.7 352.872 1399.2 353.176C1399.71 353.464 1400.11 353.856 1400.4 354.352C1400.7 354.848 1400.86 355.408 1400.86 356.032V359.92C1400.86 360.512 1400.7 361.064 1400.4 361.576C1400.11 362.072 1399.71 362.472 1399.2 362.776C1398.7 363.08 1398.15 363.232 1397.54 363.232H1387.18C1387.1 363.232 1387.02 363.264 1386.96 363.328C1386.91 363.376 1386.89 363.44 1386.89 363.52V366.568C1386.89 366.648 1386.91 366.72 1386.96 366.784C1387.02 366.832 1387.1 366.856 1387.18 366.856H1400.86V370H1383.74ZM1406.98 370C1406.37 370 1405.82 369.84 1405.32 369.52C1404.82 369.184 1404.42 368.752 1404.12 368.224C1403.82 367.696 1403.66 367.136 1403.66 366.544V356.104C1403.66 355.48 1403.82 354.92 1404.12 354.424C1404.42 353.912 1404.82 353.504 1405.32 353.2C1405.82 352.88 1406.37 352.72 1406.98 352.72H1417.46C1418.07 352.72 1418.62 352.88 1419.12 353.2C1419.62 353.504 1420.02 353.912 1420.32 354.424C1420.62 354.92 1420.78 355.48 1420.78 356.104V366.544C1420.78 367.136 1420.62 367.696 1420.32 368.224C1420.02 368.752 1419.62 369.184 1419.12 369.52C1418.62 369.84 1418.07 370 1417.46 370H1406.98ZM1408.25 366.688H1417.34C1417.42 366.688 1417.49 366.664 1417.54 366.616C1417.6 366.552 1417.63 366.48 1417.63 366.4V358.864L1408.25 366.688ZM1406.81 363.76L1416.19 355.936H1407.1C1407.02 355.936 1406.94 355.968 1406.88 356.032C1406.83 356.08 1406.81 356.144 1406.81 356.224V363.76Z" fill="#CE4727"/>
<path d="M1493.54 340V327.256L1492.18 328.936H1488.02L1493.23 322.72H1496.71V340H1493.54ZM1502.06 340C1501.45 340 1500.9 339.848 1500.4 339.544C1499.9 339.24 1499.5 338.84 1499.2 338.344C1498.9 337.848 1498.74 337.296 1498.74 336.688V326.032C1498.74 325.408 1498.9 324.848 1499.2 324.352C1499.5 323.856 1499.9 323.464 1500.4 323.176C1500.9 322.872 1501.45 322.72 1502.06 322.72H1513.12V325.864H1502.18C1502.1 325.864 1502.02 325.896 1501.96 325.96C1501.91 326.008 1501.89 326.072 1501.89 326.152V329.296C1501.89 329.376 1501.91 329.448 1501.96 329.512C1502.02 329.56 1502.1 329.584 1502.18 329.584H1512.54C1513.15 329.584 1513.7 329.736 1514.2 330.04C1514.71 330.328 1515.11 330.728 1515.4 331.24C1515.7 331.736 1515.86 332.288 1515.86 332.896V336.688C1515.86 337.296 1515.7 337.848 1515.4 338.344C1515.1 338.84 1514.7 339.24 1514.2 339.544C1513.7 339.848 1513.15 340 1512.54 340H1502.06ZM1502.18 336.856H1512.42C1512.5 336.856 1512.57 336.832 1512.62 336.784C1512.68 336.72 1512.71 336.648 1512.71 336.568V333.04C1512.71 332.96 1512.68 332.896 1512.62 332.848C1512.57 332.784 1512.5 332.752 1512.42 332.752H1501.89V336.568C1501.89 336.648 1501.91 336.72 1501.96 336.784C1502.02 336.832 1502.1 336.856 1502.18 336.856ZM1521.74 340C1521.13 340 1520.58 339.84 1520.09 339.52C1519.59 339.184 1519.19 338.752 1518.89 338.224C1518.58 337.696 1518.43 337.136 1518.43 336.544V326.104C1518.43 325.48 1518.58 324.92 1518.89 324.424C1519.19 323.912 1519.59 323.504 1520.09 323.2C1520.58 322.88 1521.13 322.72 1521.74 322.72H1532.23C1532.84 322.72 1533.39 322.88 1533.89 323.2C1534.38 323.504 1534.78 323.912 1535.09 324.424C1535.39 324.92 1535.54 325.48 1535.54 326.104V336.544C1535.54 337.136 1535.39 337.696 1535.09 338.224C1534.78 338.752 1534.38 339.184 1533.89 339.52C1533.39 339.84 1532.84 340 1532.23 340H1521.74ZM1523.01 336.688H1532.11C1532.19 336.688 1532.25 336.664 1532.3 336.616C1532.37 336.552 1532.4 336.48 1532.4 336.4V328.864L1523.01 336.688ZM1521.57 333.76L1530.96 325.936H1521.86C1521.78 325.936 1521.71 325.968 1521.65 326.032C1521.6 326.08 1521.57 326.144 1521.57 326.224V333.76Z" fill="white"/>
<path d="M1604.37 370V363.376C1604.37 362.752 1604.52 362.192 1604.82 361.696C1605.13 361.2 1605.53 360.808 1606.02 360.52C1606.52 360.216 1607.07 360.064 1607.68 360.064H1618.05C1618.13 360.064 1618.19 360.04 1618.24 359.992C1618.3 359.928 1618.34 359.856 1618.34 359.776V356.152C1618.34 356.072 1618.3 356.008 1618.24 355.96C1618.19 355.896 1618.13 355.864 1618.05 355.864H1607.8C1607.72 355.864 1607.65 355.896 1607.58 355.96C1607.54 356.008 1607.51 356.072 1607.51 356.152V357.328H1604.37V356.032C1604.37 355.408 1604.52 354.848 1604.82 354.352C1605.13 353.856 1605.53 353.464 1606.02 353.176C1606.52 352.872 1607.07 352.72 1607.68 352.72H1618.17C1618.78 352.72 1619.33 352.872 1619.82 353.176C1620.34 353.464 1620.74 353.856 1621.02 354.352C1621.33 354.848 1621.48 355.408 1621.48 356.032V359.92C1621.48 360.512 1621.33 361.064 1621.02 361.576C1620.74 362.072 1620.34 362.472 1619.82 362.776C1619.33 363.08 1618.78 363.232 1618.17 363.232H1607.8C1607.72 363.232 1607.65 363.264 1607.58 363.328C1607.54 363.376 1607.51 363.44 1607.51 363.52V366.568C1607.51 366.648 1607.54 366.72 1607.58 366.784C1607.65 366.832 1607.72 366.856 1607.8 366.856H1621.48V370H1604.37ZM1627.6 370C1626.99 370 1626.44 369.84 1625.95 369.52C1625.45 369.184 1625.05 368.752 1624.75 368.224C1624.44 367.696 1624.29 367.136 1624.29 366.544V356.104C1624.29 355.48 1624.44 354.92 1624.75 354.424C1625.05 353.912 1625.45 353.504 1625.95 353.2C1626.44 352.88 1626.99 352.72 1627.6 352.72H1638.09C1638.7 352.72 1639.25 352.88 1639.75 353.2C1640.24 353.504 1640.64 353.912 1640.95 354.424C1641.25 354.92 1641.4 355.48 1641.4 356.104V366.544C1641.4 367.136 1641.25 367.696 1640.95 368.224C1640.64 368.752 1640.24 369.184 1639.75 369.52C1639.25 369.84 1638.7 370 1638.09 370H1627.6ZM1628.87 366.688H1637.97C1638.05 366.688 1638.11 366.664 1638.16 366.616C1638.23 366.552 1638.26 366.48 1638.26 366.4V358.864L1628.87 366.688ZM1627.43 363.76L1636.82 355.936H1627.72C1627.64 355.936 1627.57 355.968 1627.51 356.032C1627.46 356.08 1627.43 356.144 1627.43 356.224V363.76ZM1647.62 370C1647.01 370 1646.46 369.84 1645.96 369.52C1645.47 369.184 1645.07 368.752 1644.76 368.224C1644.46 367.696 1644.31 367.136 1644.31 366.544V356.104C1644.31 355.48 1644.46 354.92 1644.76 354.424C1645.07 353.912 1645.47 353.504 1645.96 353.2C1646.46 352.88 1647.01 352.72 1647.62 352.72H1658.11C1658.71 352.72 1659.27 352.88 1659.76 353.2C1660.26 353.504 1660.66 353.912 1660.96 354.424C1661.27 354.92 1661.42 355.48 1661.42 356.104V366.544C1661.42 367.136 1661.27 367.696 1660.96 368.224C1660.66 368.752 1660.26 369.184 1659.76 369.52C1659.27 369.84 1658.71 370 1658.11 370H1647.62ZM1648.89 366.688H1657.99C1658.07 366.688 1658.13 366.664 1658.18 366.616C1658.24 366.552 1658.27 366.48 1658.27 366.4V358.864L1648.89 366.688ZM1647.45 363.76L1656.83 355.936H1647.74C1647.66 355.936 1647.59 355.968 1647.52 356.032C1647.47 356.08 1647.45 356.144 1647.45 356.224V363.76Z" fill="white"/>
<path d="M1676.37 445V438.376C1676.37 437.752 1676.52 437.192 1676.82 436.696C1677.13 436.2 1677.53 435.808 1678.02 435.52C1678.52 435.216 1679.07 435.064 1679.68 435.064H1690.05C1690.13 435.064 1690.19 435.04 1690.24 434.992C1690.3 434.928 1690.34 434.856 1690.34 434.776V431.152C1690.34 431.072 1690.3 431.008 1690.24 430.96C1690.19 430.896 1690.13 430.864 1690.05 430.864H1679.8C1679.72 430.864 1679.65 430.896 1679.58 430.96C1679.54 431.008 1679.51 431.072 1679.51 431.152V432.328H1676.37V431.032C1676.37 430.408 1676.52 429.848 1676.82 429.352C1677.13 428.856 1677.53 428.464 1678.02 428.176C1678.52 427.872 1679.07 427.72 1679.68 427.72H1690.17C1690.78 427.72 1691.33 427.872 1691.82 428.176C1692.34 428.464 1692.74 428.856 1693.02 429.352C1693.33 429.848 1693.48 430.408 1693.48 431.032V434.92C1693.48 435.512 1693.33 436.064 1693.02 436.576C1692.74 437.072 1692.34 437.472 1691.82 437.776C1691.33 438.08 1690.78 438.232 1690.17 438.232H1679.8C1679.72 438.232 1679.65 438.264 1679.58 438.328C1679.54 438.376 1679.51 438.44 1679.51 438.52V441.568C1679.51 441.648 1679.54 441.72 1679.58 441.784C1679.65 441.832 1679.72 441.856 1679.8 441.856H1693.48V445H1676.37ZM1699.53 445C1698.91 445 1698.35 444.848 1697.85 444.544C1697.35 444.24 1696.95 443.84 1696.65 443.344C1696.35 442.848 1696.19 442.296 1696.19 441.688V440.656H1699.34V441.568C1699.34 441.648 1699.36 441.72 1699.41 441.784C1699.47 441.832 1699.55 441.856 1699.63 441.856H1709.87C1709.95 441.856 1710.03 441.832 1710.09 441.784C1710.15 441.72 1710.19 441.648 1710.19 441.568V438.112C1710.19 438.032 1710.15 437.968 1710.09 437.92C1710.03 437.856 1709.95 437.824 1709.87 437.824H1699.17V434.68H1709.2C1709.28 434.68 1709.35 434.656 1709.39 434.608C1709.46 434.544 1709.49 434.472 1709.49 434.392V431.152C1709.49 431.072 1709.46 431.008 1709.39 430.96C1709.35 430.896 1709.28 430.864 1709.2 430.864H1699.63C1699.55 430.864 1699.47 430.896 1699.41 430.96C1699.36 431.008 1699.34 431.072 1699.34 431.152V432.28H1696.19V431.032C1696.19 430.408 1696.35 429.848 1696.65 429.352C1696.95 428.856 1697.35 428.464 1697.85 428.176C1698.35 427.872 1698.91 427.72 1699.53 427.72H1709.32C1709.95 427.72 1710.51 427.872 1711 428.176C1711.5 428.464 1711.89 428.856 1712.18 429.352C1712.48 429.848 1712.63 430.408 1712.63 431.032V434.536C1712.63 434.728 1712.62 434.928 1712.59 435.136C1712.55 435.328 1712.51 435.512 1712.44 435.688C1712.73 435.992 1712.95 436.352 1713.09 436.768C1713.25 437.168 1713.33 437.576 1713.33 437.992V441.688C1713.33 442.296 1713.18 442.848 1712.87 443.344C1712.57 443.84 1712.17 444.24 1711.67 444.544C1711.18 444.848 1710.63 445 1710.02 445H1699.53ZM1719.43 445C1718.82 445 1718.27 444.84 1717.77 444.52C1717.28 444.184 1716.88 443.752 1716.57 443.224C1716.27 442.696 1716.12 442.136 1716.12 441.544V431.104C1716.12 430.48 1716.27 429.92 1716.57 429.424C1716.88 428.912 1717.28 428.504 1717.77 428.2C1718.27 427.88 1718.82 427.72 1719.43 427.72H1729.92C1730.53 427.72 1731.08 427.88 1731.57 428.2C1732.07 428.504 1732.47 428.912 1732.77 429.424C1733.08 429.92 1733.23 430.48 1733.23 431.104V441.544C1733.23 442.136 1733.08 442.696 1732.77 443.224C1732.47 443.752 1732.07 444.184 1731.57 444.52C1731.08 444.84 1730.53 445 1729.92 445H1719.43ZM1720.7 441.688H1729.8C1729.88 441.688 1729.94 441.664 1729.99 441.616C1730.05 441.552 1730.09 441.48 1730.09 441.4V433.864L1720.7 441.688ZM1719.26 438.76L1728.65 430.936H1719.55C1719.47 430.936 1719.4 430.968 1719.33 431.032C1719.29 431.08 1719.26 431.144 1719.26 431.224V438.76Z" fill="white"/>
<path d="M1703.37 536V529.376C1703.37 528.752 1703.52 528.192 1703.82 527.696C1704.13 527.2 1704.53 526.808 1705.02 526.52C1705.52 526.216 1706.07 526.064 1706.68 526.064H1717.05C1717.13 526.064 1717.19 526.04 1717.24 525.992C1717.3 525.928 1717.34 525.856 1717.34 525.776V522.152C1717.34 522.072 1717.3 522.008 1717.24 521.96C1717.19 521.896 1717.13 521.864 1717.05 521.864H1706.8C1706.72 521.864 1706.65 521.896 1706.58 521.96C1706.54 522.008 1706.51 522.072 1706.51 522.152V523.328H1703.37V522.032C1703.37 521.408 1703.52 520.848 1703.82 520.352C1704.13 519.856 1704.53 519.464 1705.02 519.176C1705.52 518.872 1706.07 518.72 1706.68 518.72H1717.17C1717.78 518.72 1718.33 518.872 1718.82 519.176C1719.34 519.464 1719.74 519.856 1720.02 520.352C1720.33 520.848 1720.48 521.408 1720.48 522.032V525.92C1720.48 526.512 1720.33 527.064 1720.02 527.576C1719.74 528.072 1719.34 528.472 1718.82 528.776C1718.33 529.08 1717.78 529.232 1717.17 529.232H1706.8C1706.72 529.232 1706.65 529.264 1706.58 529.328C1706.54 529.376 1706.51 529.44 1706.51 529.52V532.568C1706.51 532.648 1706.54 532.72 1706.58 532.784C1706.65 532.832 1706.72 532.856 1706.8 532.856H1720.48V536H1703.37ZM1726.6 536C1725.99 536 1725.44 535.848 1724.95 535.544C1724.45 535.24 1724.05 534.84 1723.75 534.344C1723.44 533.848 1723.29 533.296 1723.29 532.688V522.032C1723.29 521.408 1723.44 520.848 1723.75 520.352C1724.05 519.856 1724.45 519.464 1724.95 519.176C1725.44 518.872 1725.99 518.72 1726.6 518.72H1737.67V521.864H1726.72C1726.64 521.864 1726.57 521.896 1726.51 521.96C1726.46 522.008 1726.43 522.072 1726.43 522.152V525.296C1726.43 525.376 1726.46 525.448 1726.51 525.512C1726.57 525.56 1726.64 525.584 1726.72 525.584H1737.09C1737.7 525.584 1738.25 525.736 1738.75 526.04C1739.26 526.328 1739.66 526.728 1739.95 527.24C1740.25 527.736 1740.4 528.288 1740.4 528.896V532.688C1740.4 533.296 1740.25 533.848 1739.95 534.344C1739.64 534.84 1739.24 535.24 1738.75 535.544C1738.25 535.848 1737.7 536 1737.09 536H1726.6ZM1726.72 532.856H1736.97C1737.05 532.856 1737.11 532.832 1737.16 532.784C1737.23 532.72 1737.26 532.648 1737.26 532.568V529.04C1737.26 528.96 1737.23 528.896 1737.16 528.848C1737.11 528.784 1737.05 528.752 1736.97 528.752H1726.43V532.568C1726.43 532.648 1726.46 532.72 1726.51 532.784C1726.57 532.832 1726.64 532.856 1726.72 532.856ZM1746.29 536C1745.68 536 1745.13 535.84 1744.63 535.52C1744.14 535.184 1743.74 534.752 1743.43 534.224C1743.13 533.696 1742.98 533.136 1742.98 532.544V522.104C1742.98 521.48 1743.13 520.92 1743.43 520.424C1743.74 519.912 1744.14 519.504 1744.63 519.2C1745.13 518.88 1745.68 518.72 1746.29 518.72H1756.78C1757.39 518.72 1757.94 518.88 1758.43 519.2C1758.93 519.504 1759.33 519.912 1759.63 520.424C1759.94 520.92 1760.09 521.48 1760.09 522.104V532.544C1760.09 533.136 1759.94 533.696 1759.63 534.224C1759.33 534.752 1758.93 535.184 1758.43 535.52C1757.94 535.84 1757.39 536 1756.78 536H1746.29ZM1747.56 532.688H1756.66C1756.74 532.688 1756.8 532.664 1756.85 532.616C1756.91 532.552 1756.95 532.48 1756.95 532.4V524.864L1747.56 532.688ZM1746.12 529.76L1755.51 521.936H1746.41C1746.33 521.936 1746.26 521.968 1746.19 522.032C1746.15 522.08 1746.12 522.144 1746.12 522.224V529.76Z" fill="white"/>
<path d="M1689.37 627V620.376C1689.37 619.752 1689.52 619.192 1689.82 618.696C1690.13 618.2 1690.53 617.808 1691.02 617.52C1691.52 617.216 1692.07 617.064 1692.68 617.064H1703.05C1703.13 617.064 1703.19 617.04 1703.24 616.992C1703.3 616.928 1703.34 616.856 1703.34 616.776V613.152C1703.34 613.072 1703.3 613.008 1703.24 612.96C1703.19 612.896 1703.13 612.864 1703.05 612.864H1692.8C1692.72 612.864 1692.65 612.896 1692.58 612.96C1692.54 613.008 1692.51 613.072 1692.51 613.152V614.328H1689.37V613.032C1689.37 612.408 1689.52 611.848 1689.82 611.352C1690.13 610.856 1690.53 610.464 1691.02 610.176C1691.52 609.872 1692.07 609.72 1692.68 609.72H1703.17C1703.78 609.72 1704.33 609.872 1704.82 610.176C1705.34 610.464 1705.74 610.856 1706.02 611.352C1706.33 611.848 1706.48 612.408 1706.48 613.032V616.92C1706.48 617.512 1706.33 618.064 1706.02 618.576C1705.74 619.072 1705.34 619.472 1704.82 619.776C1704.33 620.08 1703.78 620.232 1703.17 620.232H1692.8C1692.72 620.232 1692.65 620.264 1692.58 620.328C1692.54 620.376 1692.51 620.44 1692.51 620.52V623.568C1692.51 623.648 1692.54 623.72 1692.58 623.784C1692.65 623.832 1692.72 623.856 1692.8 623.856H1706.48V627H1689.37ZM1712.53 627C1712 627 1711.51 626.864 1711.04 626.592C1710.58 626.304 1710.18 625.928 1709.84 625.464C1709.52 624.984 1709.31 624.448 1709.19 623.856H1722.9C1722.98 623.856 1723.04 623.832 1723.09 623.784C1723.15 623.72 1723.19 623.648 1723.19 623.568V620.376C1723.19 620.296 1723.15 620.232 1723.09 620.184C1723.04 620.12 1722.98 620.088 1722.9 620.088H1712.53C1711.91 620.088 1711.35 619.936 1710.85 619.632C1710.35 619.328 1709.95 618.928 1709.65 618.432C1709.35 617.92 1709.19 617.36 1709.19 616.752V613.032C1709.19 612.408 1709.35 611.848 1709.65 611.352C1709.95 610.856 1710.35 610.464 1710.85 610.176C1711.35 609.872 1711.91 609.72 1712.53 609.72H1723.02C1723.63 609.72 1724.18 609.872 1724.67 610.176C1725.17 610.464 1725.57 610.856 1725.87 611.352C1726.18 611.848 1726.33 612.408 1726.33 613.032V623.688C1726.33 624.296 1726.18 624.848 1725.87 625.344C1725.57 625.84 1725.17 626.24 1724.67 626.544C1724.18 626.848 1723.63 627 1723.02 627H1712.53ZM1712.65 616.92H1723.19V613.152C1723.19 613.072 1723.15 613.008 1723.09 612.96C1723.04 612.896 1722.98 612.864 1722.9 612.864H1712.65C1712.57 612.864 1712.5 612.896 1712.43 612.96C1712.39 613.008 1712.36 613.072 1712.36 613.152V616.632C1712.36 616.712 1712.39 616.784 1712.43 616.848C1712.5 616.896 1712.57 616.92 1712.65 616.92ZM1732.48 627C1731.87 627 1731.32 626.84 1730.82 626.52C1730.32 626.184 1729.92 625.752 1729.62 625.224C1729.32 624.696 1729.16 624.136 1729.16 623.544V613.104C1729.16 612.48 1729.32 611.92 1729.62 611.424C1729.92 610.912 1730.32 610.504 1730.82 610.2C1731.32 609.88 1731.87 609.72 1732.48 609.72H1742.96C1743.57 609.72 1744.12 609.88 1744.62 610.2C1745.12 610.504 1745.52 610.912 1745.82 611.424C1746.12 611.92 1746.28 612.48 1746.28 613.104V623.544C1746.28 624.136 1746.12 624.696 1745.82 625.224C1745.52 625.752 1745.12 626.184 1744.62 626.52C1744.12 626.84 1743.57 627 1742.96 627H1732.48ZM1733.75 623.688H1742.84C1742.92 623.688 1742.99 623.664 1743.04 623.616C1743.1 623.552 1743.13 623.48 1743.13 623.4V615.864L1733.75 623.688ZM1732.31 620.76L1741.69 612.936H1732.6C1732.52 612.936 1732.44 612.968 1732.38 613.032C1732.33 613.08 1732.31 613.144 1732.31 613.224V620.76Z" fill="white"/>
<path d="M1639.61 703C1638.98 703 1638.42 702.848 1637.93 702.544C1637.43 702.24 1637.03 701.84 1636.73 701.344C1636.42 700.848 1636.27 700.296 1636.27 699.688V698.656H1639.42V699.568C1639.42 699.648 1639.44 699.72 1639.49 699.784C1639.55 699.832 1639.62 699.856 1639.7 699.856H1649.95C1650.03 699.856 1650.1 699.832 1650.17 699.784C1650.23 699.72 1650.26 699.648 1650.26 699.568V696.112C1650.26 696.032 1650.23 695.968 1650.17 695.92C1650.1 695.856 1650.03 695.824 1649.95 695.824H1639.25V692.68H1649.28C1649.36 692.68 1649.42 692.656 1649.47 692.608C1649.54 692.544 1649.57 692.472 1649.57 692.392V689.152C1649.57 689.072 1649.54 689.008 1649.47 688.96C1649.42 688.896 1649.36 688.864 1649.28 688.864H1639.7C1639.62 688.864 1639.55 688.896 1639.49 688.96C1639.44 689.008 1639.42 689.072 1639.42 689.152V690.28H1636.27V689.032C1636.27 688.408 1636.42 687.848 1636.73 687.352C1637.03 686.856 1637.43 686.464 1637.93 686.176C1638.42 685.872 1638.98 685.72 1639.61 685.72H1649.4C1650.02 685.72 1650.58 685.872 1651.08 686.176C1651.58 686.464 1651.97 686.856 1652.26 687.352C1652.56 687.848 1652.71 688.408 1652.71 689.032V692.536C1652.71 692.728 1652.7 692.928 1652.66 693.136C1652.63 693.328 1652.58 693.512 1652.52 693.688C1652.81 693.992 1653.02 694.352 1653.17 694.768C1653.33 695.168 1653.41 695.576 1653.41 695.992V699.688C1653.41 700.296 1653.26 700.848 1652.95 701.344C1652.65 701.84 1652.25 702.24 1651.75 702.544C1651.26 702.848 1650.7 703 1650.1 703H1639.61ZM1656.2 703V696.376C1656.2 695.752 1656.35 695.192 1656.65 694.696C1656.96 694.2 1657.36 693.808 1657.85 693.52C1658.35 693.216 1658.9 693.064 1659.51 693.064H1669.88C1669.96 693.064 1670.02 693.04 1670.07 692.992C1670.13 692.928 1670.16 692.856 1670.16 692.776V689.152C1670.16 689.072 1670.13 689.008 1670.07 688.96C1670.02 688.896 1669.96 688.864 1669.88 688.864H1659.63C1659.55 688.864 1659.48 688.896 1659.41 688.96C1659.36 689.008 1659.34 689.072 1659.34 689.152V690.328H1656.2V689.032C1656.2 688.408 1656.35 687.848 1656.65 687.352C1656.96 686.856 1657.36 686.464 1657.85 686.176C1658.35 685.872 1658.9 685.72 1659.51 685.72H1670C1670.6 685.72 1671.16 685.872 1671.65 686.176C1672.16 686.464 1672.56 686.856 1672.85 687.352C1673.16 687.848 1673.31 688.408 1673.31 689.032V692.92C1673.31 693.512 1673.16 694.064 1672.85 694.576C1672.56 695.072 1672.16 695.472 1671.65 695.776C1671.16 696.08 1670.6 696.232 1670 696.232H1659.63C1659.55 696.232 1659.48 696.264 1659.41 696.328C1659.36 696.376 1659.34 696.44 1659.34 696.52V699.568C1659.34 699.648 1659.36 699.72 1659.41 699.784C1659.48 699.832 1659.55 699.856 1659.63 699.856H1673.31V703H1656.2ZM1679.43 703C1678.82 703 1678.27 702.84 1677.77 702.52C1677.28 702.184 1676.88 701.752 1676.57 701.224C1676.27 700.696 1676.12 700.136 1676.12 699.544V689.104C1676.12 688.48 1676.27 687.92 1676.57 687.424C1676.88 686.912 1677.28 686.504 1677.77 686.2C1678.27 685.88 1678.82 685.72 1679.43 685.72H1689.92C1690.53 685.72 1691.08 685.88 1691.57 686.2C1692.07 686.504 1692.47 686.912 1692.77 687.424C1693.08 687.92 1693.23 688.48 1693.23 689.104V699.544C1693.23 700.136 1693.08 700.696 1692.77 701.224C1692.47 701.752 1692.07 702.184 1691.57 702.52C1691.08 702.84 1690.53 703 1689.92 703H1679.43ZM1680.7 699.688H1689.8C1689.88 699.688 1689.94 699.664 1689.99 699.616C1690.05 699.552 1690.09 699.48 1690.09 699.4V691.864L1680.7 699.688ZM1679.26 696.76L1688.65 688.936H1679.55C1679.47 688.936 1679.4 688.968 1679.33 689.032C1679.29 689.08 1679.26 689.144 1679.26 689.224V696.76Z" fill="white"/>
<mask id="path-23-outside-1_2114_466" maskUnits="userSpaceOnUse" x="528" y="524" width="129" height="198" fill="black">
<rect fill="white" x="528" y="524" width="129" height="198"/>
<path d="M586.014 718.425C610.079 693.102 628.592 662.997 640.358 630.05C652.125 597.104 656.884 562.047 654.329 527.141L578.461 532.739C580.237 557.002 576.929 581.37 568.75 604.271C560.571 627.172 547.703 648.098 530.976 665.7L586.014 718.425Z"/>
</mask>
<path d="M586.014 718.425C610.079 693.102 628.592 662.997 640.358 630.05C652.125 597.104 656.884 562.047 654.329 527.141L578.461 532.739C580.237 557.002 576.929 581.37 568.75 604.271C560.571 627.172 547.703 648.098 530.976 665.7L586.014 718.425Z" fill="#FF0004" fill-opacity="0.1"/>
<path d="M586.014 718.425C610.079 693.102 628.592 662.997 640.358 630.05C652.125 597.104 656.884 562.047 654.329 527.141L578.461 532.739C580.237 557.002 576.929 581.37 568.75 604.271C560.571 627.172 547.703 648.098 530.976 665.7L586.014 718.425Z" stroke="#660000" stroke-width="4" mask="url(#path-23-outside-1_2114_466)"/>
<path d="M236.24 707C235.429 707 234.693 706.787 234.032 706.36C233.371 705.912 232.837 705.336 232.432 704.632C232.027 703.928 231.824 703.181 231.824 702.392V688.472C231.824 687.64 232.027 686.893 232.432 686.232C232.837 685.549 233.371 685.005 234.032 684.6C234.693 684.173 235.429 683.96 236.24 683.96H250.224C251.035 683.96 251.771 684.173 252.432 684.6C253.093 685.005 253.627 685.549 254.032 686.232C254.437 686.893 254.64 687.64 254.64 688.472V702.392C254.64 703.181 254.437 703.928 254.032 704.632C253.627 705.336 253.093 705.912 252.432 706.36C251.771 706.787 251.035 707 250.224 707H236.24ZM237.936 702.584H250.064C250.171 702.584 250.256 702.552 250.32 702.488C250.405 702.403 250.448 702.307 250.448 702.2V692.152L237.936 702.584ZM236.016 698.68L248.528 688.248H236.4C236.293 688.248 236.197 688.291 236.112 688.376C236.048 688.44 236.016 688.525 236.016 688.632V698.68Z" fill="white"/>
<path d="M191.392 602V585.008L189.568 587.248H184.032L190.976 578.96H195.616V602H191.392Z" fill="white"/>
<path d="M188.824 478V469.168C188.824 468.336 189.027 467.589 189.432 466.928C189.837 466.267 190.371 465.744 191.032 465.36C191.693 464.955 192.429 464.752 193.24 464.752H207.064C207.171 464.752 207.256 464.72 207.32 464.656C207.405 464.571 207.448 464.475 207.448 464.368V459.536C207.448 459.429 207.405 459.344 207.32 459.28C207.256 459.195 207.171 459.152 207.064 459.152H193.4C193.293 459.152 193.197 459.195 193.112 459.28C193.048 459.344 193.016 459.429 193.016 459.536V461.104H188.824V459.376C188.824 458.544 189.027 457.797 189.432 457.136C189.837 456.475 190.371 455.952 191.032 455.568C191.693 455.163 192.429 454.96 193.24 454.96H207.224C208.035 454.96 208.771 455.163 209.432 455.568C210.115 455.952 210.648 456.475 211.032 457.136C211.437 457.797 211.64 458.544 211.64 459.376V464.56C211.64 465.349 211.437 466.085 211.032 466.768C210.648 467.429 210.115 467.963 209.432 468.368C208.771 468.773 208.035 468.976 207.224 468.976H193.4C193.293 468.976 193.197 469.019 193.112 469.104C193.048 469.168 193.016 469.253 193.016 469.36V473.424C193.016 473.531 193.048 473.627 193.112 473.712C193.197 473.776 193.293 473.808 193.4 473.808H211.64V478H188.824Z" fill="white"/>
<path d="M269.144 378C268.312 378 267.565 377.797 266.904 377.392C266.243 376.987 265.709 376.453 265.304 375.792C264.899 375.131 264.696 374.395 264.696 373.584V372.208H268.888V373.424C268.888 373.531 268.92 373.627 268.984 373.712C269.069 373.776 269.165 373.808 269.272 373.808H282.936C283.043 373.808 283.139 373.776 283.224 373.712C283.309 373.627 283.352 373.531 283.352 373.424V368.816C283.352 368.709 283.309 368.624 283.224 368.56C283.139 368.475 283.043 368.432 282.936 368.432H268.664V364.24H282.04C282.147 364.24 282.232 364.208 282.296 364.144C282.381 364.059 282.424 363.963 282.424 363.856V359.536C282.424 359.429 282.381 359.344 282.296 359.28C282.232 359.195 282.147 359.152 282.04 359.152H269.272C269.165 359.152 269.069 359.195 268.984 359.28C268.92 359.344 268.888 359.429 268.888 359.536V361.04H264.696V359.376C264.696 358.544 264.899 357.797 265.304 357.136C265.709 356.475 266.243 355.952 266.904 355.568C267.565 355.163 268.312 354.96 269.144 354.96H282.2C283.032 354.96 283.779 355.163 284.44 355.568C285.101 355.952 285.624 356.475 286.008 357.136C286.413 357.797 286.616 358.544 286.616 359.376V364.048C286.616 364.304 286.595 364.571 286.552 364.848C286.509 365.104 286.445 365.349 286.36 365.584C286.744 365.989 287.032 366.469 287.224 367.024C287.437 367.557 287.544 368.101 287.544 368.656V373.584C287.544 374.395 287.341 375.131 286.936 375.792C286.531 376.453 285.997 376.987 285.336 377.392C284.675 377.797 283.939 378 283.128 378H269.144Z" fill="white"/>
<path d="M408.688 335V329.208H394.192V325.272L408.944 311.96H412.88V324.984H416.112V329.208H412.88V335H408.688ZM400.72 324.984H408.688V318.328L400.72 324.984Z" fill="white"/>
<path d="M525.24 378C524.429 378 523.693 377.797 523.032 377.392C522.371 376.987 521.837 376.453 521.432 375.792C521.027 375.131 520.824 374.395 520.824 373.584V372.08H525.016V373.424C525.016 373.531 525.048 373.627 525.112 373.712C525.197 373.776 525.293 373.808 525.4 373.808H539.064C539.171 373.808 539.256 373.776 539.32 373.712C539.405 373.627 539.448 373.531 539.448 373.424V368.752C539.448 368.645 539.405 368.56 539.32 368.496C539.256 368.411 539.171 368.368 539.064 368.368H520.824V354.96H543.64V359.152H525.4C525.293 359.152 525.197 359.195 525.112 359.28C525.048 359.344 525.016 359.429 525.016 359.536V363.76C525.016 363.867 525.048 363.963 525.112 364.048C525.197 364.112 525.293 364.144 525.4 364.144H539.224C540.035 364.144 540.771 364.347 541.432 364.752C542.115 365.136 542.648 365.669 543.032 366.352C543.437 367.013 543.64 367.749 543.64 368.56V373.584C543.64 374.395 543.437 375.131 543.032 375.792C542.627 376.453 542.093 376.987 541.432 377.392C540.771 377.797 540.035 378 539.224 378H525.24Z" fill="white"/>
<path d="M599.24 478C598.429 478 597.693 477.797 597.032 477.392C596.371 476.987 595.837 476.453 595.432 475.792C595.027 475.131 594.824 474.395 594.824 473.584V459.376C594.824 458.544 595.027 457.797 595.432 457.136C595.837 456.475 596.371 455.952 597.032 455.568C597.693 455.163 598.429 454.96 599.24 454.96H613.992V459.152H599.4C599.293 459.152 599.197 459.195 599.112 459.28C599.048 459.344 599.016 459.429 599.016 459.536V463.728C599.016 463.835 599.048 463.931 599.112 464.016C599.197 464.08 599.293 464.112 599.4 464.112H613.224C614.035 464.112 614.771 464.315 615.432 464.72C616.115 465.104 616.648 465.637 617.032 466.32C617.437 466.981 617.64 467.717 617.64 468.528V473.584C617.64 474.395 617.437 475.131 617.032 475.792C616.627 476.453 616.093 476.987 615.432 477.392C614.771 477.797 614.035 478 613.224 478H599.24ZM599.4 473.808H613.064C613.171 473.808 613.256 473.776 613.32 473.712C613.405 473.627 613.448 473.531 613.448 473.424V468.72C613.448 468.613 613.405 468.528 613.32 468.464C613.256 468.379 613.171 468.336 613.064 468.336H599.016V473.424C599.016 473.531 599.048 473.627 599.112 473.712C599.197 473.776 599.293 473.808 599.4 473.808Z" fill="white"/>
<path d="M614.072 602V583.504C614.072 583.397 614.029 583.312 613.944 583.248C613.88 583.163 613.795 583.12 613.688 583.12H599.096V578.928H613.848C614.659 578.928 615.395 579.131 616.056 579.536C616.739 579.92 617.272 580.443 617.656 581.104C618.061 581.765 618.264 582.512 618.264 583.344V602H614.072Z" fill="#FF0000"/>
<path d="M550.24 706C549.429 706 548.693 705.797 548.032 705.392C547.371 704.987 546.837 704.453 546.432 703.792C546.027 703.131 545.824 702.395 545.824 701.584V696.56C545.824 696.176 545.888 695.792 546.016 695.408C546.144 695.003 546.304 694.619 546.496 694.256C546.304 693.893 546.144 693.52 546.016 693.136C545.888 692.731 545.824 692.325 545.824 691.92V687.376C545.824 686.544 546.027 685.797 546.432 685.136C546.837 684.475 547.371 683.952 548.032 683.568C548.693 683.163 549.429 682.96 550.24 682.96H564.224C564.928 682.96 565.589 683.12 566.208 683.44C566.827 683.76 567.349 684.197 567.776 684.752C568.224 685.307 568.512 685.915 568.64 686.576V691.92C568.64 692.709 568.416 693.488 567.968 694.256C568.416 694.96 568.64 695.728 568.64 696.56V701.584C568.64 702.395 568.437 703.131 568.032 703.792C567.627 704.453 567.093 704.987 566.432 705.392C565.771 705.797 565.035 706 564.224 706H550.24ZM550.4 701.808H564.064C564.171 701.808 564.256 701.776 564.32 701.712C564.405 701.627 564.448 701.531 564.448 701.424V696.752C564.448 696.645 564.405 696.56 564.32 696.496C564.256 696.411 564.171 696.368 564.064 696.368H550.4C550.293 696.368 550.197 696.411 550.112 696.496C550.048 696.56 550.016 696.645 550.016 696.752V701.424C550.016 701.531 550.048 701.627 550.112 701.712C550.197 701.776 550.293 701.808 550.4 701.808ZM550.4 692.496H564.064C564.171 692.496 564.256 692.453 564.32 692.368C564.405 692.283 564.448 692.197 564.448 692.112V687.568C564.448 687.461 564.405 687.376 564.32 687.312C564.256 687.227 564.171 687.184 564.064 687.184H550.4C550.293 687.184 550.197 687.227 550.112 687.312C550.048 687.376 550.016 687.461 550.016 687.568V692.112C550.016 692.197 550.048 692.283 550.112 692.368C550.197 692.453 550.293 692.496 550.4 692.496Z" fill="#FF0000"/>
<path d="M618.132 756.132C660.088 714.176 688.66 660.721 700.236 602.527C711.811 544.333 705.87 484.013 683.164 429.195C660.458 374.377 622.006 327.524 572.671 294.559C523.336 261.595 465.335 244 406 244C346.666 244 288.664 261.595 239.329 294.559C189.994 327.524 151.543 374.377 128.836 429.195C106.13 484.013 100.189 544.333 111.765 602.527C123.34 660.721 151.912 714.176 193.868 756.132" stroke="#3F4140" stroke-width="2"/>
<g filter="url(#filter5_i_2114_466)">
<path d="M607.525 747C647.383 707.021 674.527 656.085 685.524 600.633C696.52 545.181 690.876 487.703 669.306 435.468C647.735 383.234 611.205 338.588 564.337 307.177C517.469 275.766 462.368 259 406 259C349.632 259 294.531 275.766 247.663 307.177C200.795 338.588 164.265 383.234 142.694 435.468C121.123 487.703 115.48 545.181 126.476 600.633C137.473 656.085 164.617 707.021 204.475 747" stroke="#1B1A1D" stroke-width="20"/>
</g>
<path d="M599.392 739C637.732 700.66 663.842 651.811 674.42 598.632C684.998 545.452 679.569 490.33 658.819 440.236C638.07 390.142 602.931 347.326 557.848 317.202C512.765 287.079 459.761 271 405.54 271C351.318 271 298.314 287.079 253.231 317.202C208.148 347.326 173.009 390.142 152.26 440.236" stroke="#FF0000" stroke-width="2"/>
<path d="M658.819 440.236C638.069 390.142 602.931 347.326 557.848 317.202C512.764 287.079 459.761 271 405.539 271C351.318 271 298.314 287.079 253.231 317.202C208.147 347.326 173.009 390.142 152.26 440.236C131.51 490.33 126.081 545.452 136.659 598.632" stroke="white" stroke-width="2"/>
<path d="M593 732.5C632 693.5 655.654 646.978 665.898 595.731C676.143 544.483 670.885 491.363 650.79 443.089" stroke="#660000" stroke-width="16"/>
<path d="M522.929 661C546.026 638.225 561.755 609.208 568.127 577.619C574.5 546.029 571.229 513.286 558.729 483.529C546.229 453.772 525.062 428.339 497.903 410.445C470.744 392.551 438.814 383 406.15 383C373.487 383 341.557 392.551 314.398 410.445C287.239 428.339 266.071 453.772 253.571 483.529C241.072 513.286 237.801 546.029 244.173 577.619C250.546 609.208 266.275 638.225 289.371 661" stroke="#3F4140"/>
<g filter="url(#filter6_i_2114_466)">
<path d="M513.667 652.419C534.946 631.315 549.437 604.426 555.308 575.153C561.179 545.88 558.166 515.538 546.65 487.963C535.134 460.389 515.632 436.821 490.61 420.239C465.588 403.657 436.171 394.807 406.078 394.807C375.984 394.807 346.567 403.657 321.545 420.239C296.524 436.821 277.022 460.389 265.505 487.963C253.989 515.538 250.976 545.88 256.847 575.153C262.718 604.426 277.209 631.315 298.488 652.419" stroke="#1B1A1D" stroke-width="20"/>
</g>
</g>
<defs>
<filter id="filter0_i_2114_466" x="1691" y="787" width="228.5" height="190" filterUnits="userSpaceOnUse" color-interpolation-filters="sRGB">
<feFlood flood-opacity="0" result="BackgroundImageFix"/>
<feBlend mode="normal" in="SourceGraphic" in2="BackgroundImageFix" result="shape"/>
<feColorMatrix in="SourceAlpha" type="matrix" values="0 0 0 0 0 0 0 0 0 0 0 0 0 0 0 0 0 0 127 0" result="hardAlpha"/>
<feOffset dy="4"/>
<feGaussianBlur stdDeviation="2"/>
<feComposite in2="hardAlpha" operator="arithmetic" k2="-1" k3="1"/>
<feColorMatrix type="matrix" values="0 0 0 0 1 0 0 0 0 1 0 0 0 0 1 0 0 0 0.25 0"/>
<feBlend mode="normal" in2="shape" result="effect1_innerShadow_2114_466"/>
</filter>
<filter id="filter1_i_2114_466" x="0" y="798" width="228.5" height="190" filterUnits="userSpaceOnUse" color-interpolation-filters="sRGB">
<feFlood flood-opacity="0" result="BackgroundImageFix"/>
<feBlend mode="normal" in="SourceGraphic" in2="BackgroundImageFix" result="shape"/>
<feColorMatrix in="SourceAlpha" type="matrix" values="0 0 0 0 0 0 0 0 0 0 0 0 0 0 0 0 0 0 127 0" result="hardAlpha"/>
<feOffset dy="4"/>
<feGaussianBlur stdDeviation="2"/>
<feComposite in2="hardAlpha" operator="arithmetic" k2="-1" k3="1"/>
<feColorMatrix type="matrix" values="0 0 0 0 1 0 0 0 0 1 0 0 0 0 1 0 0 0 0.25 0"/>
<feBlend mode="normal" in2="shape" result="effect1_innerShadow_2114_466"/>
</filter>
<filter id="filter2_i_2114_466" x="-108" y="-8" width="2130" height="189.818" filterUnits="userSpaceOnUse" color-interpolation-filters="sRGB">
<feFlood flood-opacity="0" result="BackgroundImageFix"/>
<feBlend mode="normal" in="SourceGraphic" in2="BackgroundImageFix" result="shape"/>
<feColorMatrix in="SourceAlpha" type="matrix" values="0 0 0 0 0 0 0 0 0 0 0 0 0 0 0 0 0 0 127 0" result="hardAlpha"/>
<feOffset dy="8"/>
<feGaussianBlur stdDeviation="4"/>
<feComposite in2="hardAlpha" operator="arithmetic" k2="-1" k3="1"/>
<feColorMatrix type="matrix" values="0 0 0 0 1 0 0 0 0 1 0 0 0 0 1 0 0 0 0.25 0"/>
<feBlend mode="normal" in2="shape" result="effect1_innerShadow_2114_466"/>
</filter>
<filter id="filter3_i_2114_466" x="1218" y="250" width="590" height="506.06" filterUnits="userSpaceOnUse" color-interpolation-filters="sRGB">
<feFlood flood-opacity="0" result="BackgroundImageFix"/>
<feBlend mode="normal" in="SourceGraphic" in2="BackgroundImageFix" result="shape"/>
<feColorMatrix in="SourceAlpha" type="matrix" values="0 0 0 0 0 0 0 0 0 0 0 0 0 0 0 0 0 0 127 0" result="hardAlpha"/>
<feOffset dy="1"/>
<feGaussianBlur stdDeviation="1"/>
<feComposite in2="hardAlpha" operator="arithmetic" k2="-1" k3="1"/>
<feColorMatrix type="matrix" values="0 0 0 0 1 0 0 0 0 1 0 0 0 0 1 0 0 0 0.25 0"/>
<feBlend mode="normal" in2="shape" result="effect1_innerShadow_2114_466"/>
</filter>
<filter id="filter4_i_2114_466" x="1351" y="384.807" width="324.309" height="275.713" filterUnits="userSpaceOnUse" color-interpolation-filters="sRGB">
<feFlood flood-opacity="0" result="BackgroundImageFix"/>
<feBlend mode="normal" in="SourceGraphic" in2="BackgroundImageFix" result="shape"/>
<feColorMatrix in="SourceAlpha" type="matrix" values="0 0 0 0 0 0 0 0 0 0 0 0 0 0 0 0 0 0 127 0" result="hardAlpha"/>
<feOffset dy="1"/>
<feGaussianBlur stdDeviation="1"/>
<feComposite in2="hardAlpha" operator="arithmetic" k2="-1" k3="1"/>
<feColorMatrix type="matrix" values="0 0 0 0 1 0 0 0 0 1 0 0 0 0 1 0 0 0 0.25 0"/>
<feBlend mode="normal" in2="shape" result="effect1_innerShadow_2114_466"/>
</filter>
<filter id="filter5_i_2114_466" x="111" y="249" width="590" height="506.06" filterUnits="userSpaceOnUse" color-interpolation-filters="sRGB">
<feFlood flood-opacity="0" result="BackgroundImageFix"/>
<feBlend mode="normal" in="SourceGraphic" in2="BackgroundImageFix" result="shape"/>
<feColorMatrix in="SourceAlpha" type="matrix" values="0 0 0 0 0 0 0 0 0 0 0 0 0 0 0 0 0 0 127 0" result="hardAlpha"/>
<feOffset dy="1"/>
<feGaussianBlur stdDeviation="1"/>
<feComposite in2="hardAlpha" operator="arithmetic" k2="-1" k3="1"/>
<feColorMatrix type="matrix" values="0 0 0 0 1 0 0 0 0 1 0 0 0 0 1 0 0 0 0.25 0"/>
<feBlend mode="normal" in2="shape" result="effect1_innerShadow_2114_466"/>
</filter>
<filter id="filter6_i_2114_466" x="243.923" y="384.807" width="324.309" height="275.713" filterUnits="userSpaceOnUse" color-interpolation-filters="sRGB">
<feFlood flood-opacity="0" result="BackgroundImageFix"/>
<feBlend mode="normal" in="SourceGraphic" in2="BackgroundImageFix" result="shape"/>
<feColorMatrix in="SourceAlpha" type="matrix" values="0 0 0 0 0 0 0 0 0 0 0 0 0 0 0 0 0 0 127 0" result="hardAlpha"/>
<feOffset dy="1"/>
<feGaussianBlur stdDeviation="1"/>
<feComposite in2="hardAlpha" operator="arithmetic" k2="-1" k3="1"/>
<feColorMatrix type="matrix" values="0 0 0 0 1 0 0 0 0 1 0 0 0 0 1 0 0 0 0.25 0"/>
<feBlend mode="normal" in2="shape" result="effect1_innerShadow_2114_466"/>
</filter>
<linearGradient id="paint0_linear_2114_466" x1="1786" y1="871.5" x2="1805.25" y2="973" gradientUnits="userSpaceOnUse">
<stop offset="0.219634" stop-color="#272727"/>
<stop offset="1" stop-opacity="0.04"/>
</linearGradient>
<linearGradient id="paint1_linear_2114_466" x1="133.5" y1="882.5" x2="114.25" y2="984" gradientUnits="userSpaceOnUse">
<stop offset="0.219634" stop-color="#272727"/>
<stop offset="1" stop-opacity="0.04"/>
</linearGradient>
<linearGradient id="paint2_linear_2114_466" x1="957" y1="-8" x2="957" y2="350" gradientUnits="userSpaceOnUse">
<stop stop-color="#232323"/>
<stop offset="1" stop-color="#303030"/>
</linearGradient>
<linearGradient id="paint3_linear_2114_466" x1="836.662" y1="591.487" x2="671.068" y2="785.288" gradientUnits="userSpaceOnUse">
<stop stop-color="#545454" stop-opacity="0"/>
<stop offset="1" stop-color="#545454"/>
</linearGradient>
<linearGradient id="paint4_linear_2114_466" x1="3.182" y1="-3.1832" x2="258.094" y2="-3.53727" gradientUnits="userSpaceOnUse">
<stop stop-color="#545454" stop-opacity="0"/>
<stop offset="1" stop-color="#545454"/>
</linearGradient>
<clipPath id="clip0_2114_466">
<rect width="1920" height="984" fill="white"/>
</clipPath>
</defs>
</svg>
